<?xml version="1.0" standalone="no"?>
<!DOCTYPE svg PUBLIC "-//W3C//DTD SVG 20010904//EN"
 "http://www.w3.org/TR/2001/REC-SVG-20010904/DTD/svg10.dtd">
<svg version="1.0" xmlns="http://www.w3.org/2000/svg"
 width="200.000000pt" height="200.000000pt" viewBox="0 0 200.000000 200.000000"
 preserveAspectRatio="xMidYMid meet">

<g transform="translate(0.000000,200.000000) scale(0.100000,-0.100000)"
fill="#000000" stroke="none">
<path d="M0 1000 l0 -1000 1000 0 1000 0 0 1000 0 1000 -1000 0 -1000 0 0
-1000z m908 798 c-3 -7 -27 -15 -54 -18 l-49 -5 0 -55 0 -55 165 0 165 0 0 55
0 55 -95 5 c-53 3 -95 9 -95 15 0 15 194 19 211 4 10 -8 14 -34 14 -81 0 -66
-1 -70 -30 -86 -25 -14 -30 -23 -30 -54 0 -27 -4 -38 -15 -38 -11 0 -15 11
-15 40 0 33 -3 40 -20 40 -19 0 -20 -7 -20 -117 0 -113 1 -120 29 -162 25 -38
30 -41 39 -25 7 13 5 26 -9 48 -24 40 -27 136 -4 136 11 0 15 -11 15 -37 1
-21 7 -51 14 -68 l13 -30 26 43 c29 45 54 53 79 25 8 -10 45 -72 83 -137 74
-128 88 -182 66 -249 -10 -30 -9 -40 10 -76 36 -70 16 -143 -55 -195 -27 -20
-40 -21 -376 -21 -336 0 -349 1 -376 21 -51 37 -69 71 -69 127 0 50 5 60 150
276 l150 224 3 106 3 106 -30 17 c-30 16 -31 20 -31 86 0 39 5 73 12 80 17 17
131 16 126 0z m467 -31 c37 -53 3 -121 -60 -121 -64 0 -97 68 -60 121 26 36
95 36 120 0z m84 -243 c28 -35 26 -69 -4 -99 -43 -44 -106 -24 -128 38 -8 20
16 72 35 80 36 15 77 6 97 -19z m-583 -981 c36 6 38 5 19 -9 -11 -8 -30 -17
-42 -20 -24 -6 -29 -20 -38 -116 -6 -52 -4 -68 6 -68 22 0 4 -9 -39 -18 -24
-6 -42 -6 -42 -1 0 5 6 9 13 9 9 0 17 26 25 78 17 112 17 121 -10 115 -13 -3
-29 -10 -35 -16 -19 -14 -16 3 4 25 9 10 29 18 44 18 15 0 31 5 35 11 5 8 9 7
14 -1 5 -9 21 -11 46 -7z m210 -35 c-3 -7 -7 -26 -11 -43 l-7 -30 29 28 c35
32 43 27 43 -25 0 -57 -23 -103 -59 -119 -25 -11 -32 -21 -37 -56 -3 -23 -15
-50 -26 -60 -19 -17 -20 -17 -14 17 4 19 8 51 11 70 11 82 38 206 47 218 6 6
14 12 19 12 5 0 7 -6 5 -12z m-96 -73 c0 -41 -29 -94 -63 -114 -24 -14 -29
-14 -38 -1 -5 8 -8 33 -5 55 4 31 14 49 46 79 46 42 60 38 60 -19z m290 16 c0
-21 -10 -37 -37 -58 -27 -22 -35 -35 -29 -48 6 -17 7 -17 26 0 24 22 27 9 3
-17 -18 -20 -48 -24 -59 -6 -8 13 -7 72 2 100 6 20 59 58 82 58 7 0 12 -12 12
-29z"/>
<path d="M860 1506 l0 -114 -151 -229 c-148 -223 -151 -229 -146 -273 4 -33
13 -51 36 -72 l31 -28 340 0 340 0 30 28 c36 32 49 87 30 132 -11 27 -15 29
-27 17 -11 -11 -12 -19 -2 -39 9 -20 8 -32 -2 -54 -26 -53 -37 -54 -381 -52
-302 3 -318 4 -337 23 -37 38 -35 65 11 138 26 41 50 67 60 67 25 0 23 -7 -22
-75 -78 -117 -82 -115 301 -115 345 0 349 1 335 55 -5 21 -10 24 -26 15 -27
-14 -105 -12 -143 4 -71 30 -121 109 -115 184 l3 42 -116 0 -116 0 -27 -40
c-26 -40 -40 -48 -51 -30 -3 5 37 74 90 152 l95 143 0 117 c0 111 -1 118 -20
118 -19 0 -20 -7 -20 -114z m112 -393 c31 -28 22 -70 -20 -92 -48 -25 -98 38
-68 84 19 29 60 33 88 8z m-134 -100 c50 -42 24 -123 -39 -123 -65 0 -93 80
-43 119 33 26 55 26 82 4z"/>
<path d="M913 1084 c-8 -21 13 -42 28 -27 13 13 5 43 -11 43 -6 0 -13 -7 -17
-16z"/>
<path d="M777 984 c-12 -13 -8 -52 7 -57 21 -8 49 16 44 39 -3 19 -38 31 -51
18z"/>
<path d="M939 1496 l-4 -123 -58 -87 -57 -86 113 0 113 0 16 32 c15 32 14 34
-21 87 -36 54 -36 55 -40 178 l-3 123 -28 0 -28 0 -3 -124z"/>
<path d="M1133 1283 c-81 -141 -90 -186 -54 -253 20 -38 88 -80 130 -80 43 0
114 42 135 79 37 65 27 111 -54 254 -40 70 -75 127 -79 127 -3 0 -39 -57 -78
-127z m97 -34 c0 -36 2 -40 15 -29 12 10 19 10 27 2 9 -9 5 -19 -15 -40 -16
-17 -27 -39 -27 -57 0 -27 1 -27 18 -12 46 41 57 5 13 -38 -17 -15 -31 -37
-33 -49 -4 -27 -32 -28 -36 -1 -2 11 -18 35 -35 53 -24 24 -28 35 -19 44 9 9
16 7 32 -7 20 -18 20 -18 20 10 0 18 -11 40 -27 57 -20 21 -24 31 -15 40 8 8
15 8 27 -2 13 -11 15 -8 15 22 0 37 6 48 27 48 9 0 13 -14 13 -41z"/>
<path d="M1292 1751 c-8 -5 -12 -21 -10 -37 3 -25 7 -29 33 -29 26 0 30 4 33
29 3 27 -10 46 -33 46 -5 0 -16 -4 -23 -9z"/>
<path d="M1388 1513 c-23 -6 -33 -40 -17 -59 7 -8 24 -14 38 -12 20 2 27 9 29
30 3 29 -20 48 -50 41z"/>
<path d="M1083 413 c-27 -49 -29 -73 -8 -73 21 0 37 36 33 78 l-3 37 -22 -42z"/>
<path d="M933 435 c-17 -33 -23 -69 -14 -84 6 -9 10 -10 16 -2 14 24 22 67 15
86 -7 19 -7 19 -17 0z"/>
<path d="M1233 448 c-6 -7 -13 -23 -15 -35 -4 -16 -2 -20 8 -16 14 5 30 50 22
59 -3 2 -10 -1 -15 -8z"/>
</g>
</svg>
