<?xml version="1.0" encoding="UTF-8" standalone="no"?>
<!-- Created with Inkscape (http://www.inkscape.org/) -->

<svg
   width="297mm"
   height="297mm"
   viewBox="0 0 297 297"
   version="1.1"
   id="svg1"
   xmlns="http://www.w3.org/2000/svg"
   xmlns:svg="http://www.w3.org/2000/svg">
  <defs
     id="defs1" />
  <g
     id="layer1">
    <g
       id="g24"
       style="clip-rule:evenodd;fill-rule:evenodd;image-rendering:optimizeQuality;shape-rendering:geometricPrecision;text-rendering:geometricPrecision"
       transform="matrix(1.2828024,0,0,1.280835,21.48438,25.562315)">
      <g
         id="g2">
        <path
           style="opacity:1"
           fill="#0a0a0a"
           d="m 67.5,-0.5 c 5.3333,0 10.6667,0 16,0 1.2279,1.50978 1.2279,3.00978 0,4.5 -5.2503,0.19285 -10.417,0.69285 -15.5,1.5 -0.6667,5.6667 -0.6667,11.3333 0,17 0.5,0.5 1,1 1.5,1.5 17,0.6667 34,0.6667 51,0 1.142,-6.0844 1.309,-12.2511 0.5,-18.5 C 111.577,4.68031 102.077,4.18031 92.5,4 c -1.2279,-1.49022 -1.2279,-2.99022 0,-4.5 9.333,0 18.667,0 28,0 2.167,0.697963 4,2.0313 5.5,4 0.667,6.6667 0.667,13.3333 0,20 -1.639,3.9893 -4.639,5.9893 -9,6 -0.333,4 -0.667,8 -1,12 -1,1.3333 -2,1.3333 -3,0 -0.333,-4 -0.667,-8 -1,-12 -2.041,-0.9231 -4.208,-1.2564 -6.5,-1 -0.427,13.7264 0.073,27.3931 1.5,41 2.667,4 5.333,8 8,12 2.062,-2.0052 3.062,-4.3385 3,-7 -5.252,-7.523 -6.919,-15.8564 -5,-25 1,-1.3333 2,-1.3333 3,0 0.333,4 0.667,8 1,12 0.742,3.1565 2.242,5.8232 4.5,8 2.496,-3.3411 4.829,-6.8411 7,-10.5 3.291,-2.0745 6.457,-1.9078 9.5,0.5 7.667,13.6667 15.333,27.3333 23,41 2.257,8.66 1.757,17.16 -1.5,25.5 1.341,3.184 2.841,6.351 4.5,9.5 3.461,14.578 -1.705,24.744 -15.5,30.5 -36,0.667 -72,0.667 -108,0 -15.5513,-7.665 -19.718,-19.498 -12.5,-35.5 15.0598,-22.063 29.7265,-44.3961 44,-67 0.4999,-11.6619 0.6665,-23.3286 0.5,-35 -3.4705,0.6252 -6.3038,-0.3748 -8.5,-3 -0.6667,-7.3333 -0.6667,-14.6667 0,-22 0.6897,-1.85023 1.8564,-3.183565 3.5,-4 z"
           id="path2" />
      </g>
      <g
         id="g3">
        <path
           style="opacity:1"
           fill="#f6f6f6"
           d="m 83.5,-0.5 c 3,0 6,0 9,0 -1.2279,1.50978 -1.2279,3.00978 0,4.5 9.577,0.18031 19.077,0.68031 28.5,1.5 0.809,6.2489 0.642,12.4156 -0.5,18.5 -17,0.6667 -34,0.6667 -51,0 C 69,23.5 68.5,23 68,22.5 67.3333,16.8333 67.3333,11.1667 68,5.5 73.083,4.69285 78.2497,4.19285 83.5,4 c 1.2279,-1.49022 1.2279,-2.99022 0,-4.5 z"
           id="path3" />
      </g>
      <g
         id="g4">
        <path
           style="opacity:1"
           fill="#0f0f0f"
           d="m 145.5,2.5 c 14.445,0.72369 18.445,7.557 12,20.5 -13.033,5.7421 -19.533,1.5754 -19.5,-12.5 1.69,-3.52089 4.19,-6.18756 7.5,-8 z"
           id="path4" />
      </g>
      <g
         id="g5">
        <path
           style="opacity:1"
           fill="#f3f3f3"
           d="m 146.5,7.5 c 6.664,-0.49985 9.831,2.5002 9.5,9 -0.465,1.4308 -1.299,2.5975 -2.5,3.5 -7.771,2.2191 -11.271,-0.6143 -10.5,-8.5 0.69,-1.85023 1.856,-3.18357 3.5,-4 z"
           id="path5" />
      </g>
      <g
         id="g6">
        <path
           style="opacity:1"
           fill="#f6f6f6"
           d="m 66.5,102.5 c 12.5113,-0.329 24.8446,0.005 37,1 -2.008,22.402 7.992,34.735 30,37 4.767,-0.216 9.434,-0.716 14,-1.5 1.774,4.163 1.107,7.83 -2,11 -33.667,0.667 -67.3333,0.667 -101,0 -3.6265,-2.251 -4.7931,-5.418 -3.5,-9.5 3.6667,-5.667 7.3333,-11.333 11,-17 -0.2323,-4.924 -1.899,-5.258 -5,-1 -3.6667,5.667 -7.3333,11.333 -11,17 -1.1285,6.91 1.3715,12.077 7.5,15.5 33.6667,0.667 67.333,0.667 101,0 7.673,-2.842 10.506,-8.342 8.5,-16.5 -2.091,-3.152 -1.258,-5.485 2.5,-7 7.355,9.94 6.355,19.107 -3,27.5 -2.217,1.275 -4.551,2.275 -7,3 -33.667,0.667 -67.3333,0.667 -101,0 -12.4026,-3.953 -17.2359,-12.453 -14.5,-25.5 15.3333,-23.333 30.6667,-46.6667 46,-70 1.42,-12.6056 1.92,-25.2722 1.5,-38 2.2925,-0.2564 4.4592,0.0769 6.5,1 0.6667,12 0.6667,24 0,36 -8.9064,15.4768 -18.5731,30.4768 -29,45 -0.49,1.293 -0.6567,2.627 -0.5,4 1.3734,0.157 2.7068,-0.01 4,-0.5 2.5297,-4.013 5.1964,-7.846 8,-11.5 z"
           id="path6" />
      </g>
      <g
         id="g7">
        <path
           style="opacity:1"
           fill="#f7f7f7"
           d="m 89.5,28.5 c 3.6667,0 7.3333,0 11,0 -0.167,12.6711 0,25.3377 0.5,38 3.061,7.1241 6.895,13.7908 11.5,20 -1.92,2.8388 -3.587,5.8388 -5,9 -12.3198,1.1659 -24.6532,1.3326 -37,0.5 5.5,-8.1667 11,-16.3333 16.5,-24.5 1.1134,-14.3536 1.9467,-28.6869 2.5,-43 z"
           id="path7" />
      </g>
      <g
         id="g8">
        <path
           style="opacity:1"
           fill="#0f0f0f"
           d="m 158.5,41.5 c 11.375,-1.123 16.542,3.877 15.5,15 -1.803,5.0813 -5.469,7.748 -11,8 -9.086,-1.4853 -12.753,-6.8187 -11,-16 1.694,-2.8576 3.861,-5.191 6.5,-7 z"
           id="path8" />
      </g>
      <g
         id="g9">
        <path
           style="opacity:1"
           fill="#f8f8f8"
           d="m 159.5,46.5 c 8.165,-1.3362 11.331,1.9971 9.5,10 -3.315,3.6053 -6.982,3.9386 -11,1 -2.311,-4.1259 -1.811,-7.7925 1.5,-11 z"
           id="path9" />
      </g>
      <g
         id="g10">
        <path
           style="opacity:1"
           fill="#f9f9f9"
           d="m 131.5,62.5 c 1.175,-0.219 2.175,0.1143 3,1 7.753,13.1715 15.253,26.5048 22.5,40 2.167,23.167 -8.333,33.667 -31.5,31.5 -15.589,-6.754 -20.756,-18.254 -15.5,-34.5 7.444,-12.5591 14.61,-25.2257 21.5,-38 z"
           id="path10" />
      </g>
      <g
         id="g11">
        <path
           style="opacity:1"
           fill="#0c0c0c"
           d="m 131.5,82.5 c 1.322,-0.17 2.489,0.1634 3.5,1 0.333,4 0.667,8 1,12 1.848,-2.5414 4.348,-3.5414 7.5,-3 -1.449,3.9724 -3.949,7.3057 -7.5,10 -0.667,4 -0.667,8 0,12 1.833,-1.833 3.667,-3.667 5.5,-5.5 1.819,-0.783 3.152,-0.283 4,1.5 -2.606,4.109 -5.773,7.776 -9.5,11 -0.251,1.933 -0.751,3.766 -1.5,5.5 -1.284,0.684 -2.451,0.517 -3.5,-0.5 -0.333,-1.667 -0.667,-3.333 -1,-5 -3,-3 -6,-6 -9,-9 -0.49,-1.293 -0.657,-2.627 -0.5,-4 4.003,0.471 7.169,2.471 9.5,6 0.667,-4 0.667,-8 0,-12 -3.551,-2.6943 -6.051,-6.0276 -7.5,-10 3.152,-0.5414 5.652,0.4586 7.5,3 0.228,-4.4171 0.728,-8.7504 1.5,-13 z"
           id="path11" />
      </g>
      <g
         id="g12">
        <path
           style="opacity:1"
           fill="#bdbdbd"
           d="m 66.5,102.5 c 12.5062,-1.325 25.1729,-1.325 38,0 -0.124,0.607 -0.457,0.94 -1,1 -12.1554,-0.995 -24.4887,-1.329 -37,-1 z"
           id="path12" />
      </g>
      <g
         id="g13">
        <path
           style="opacity:1"
           fill="#101010"
           d="m 85.5,107.5 c 8.8743,-0.629 12.7076,3.371 11.5,12 -3.9135,6.596 -8.9135,7.596 -15,3 -3.9817,-6.265 -2.815,-11.265 3.5,-15 z"
           id="path13" />
      </g>
      <g
         id="g14">
        <path
           style="opacity:1"
           fill="#f1f1f1"
           d="m 86.5,112.5 c 5.9877,0.164 7.321,2.664 4,7.5 -6.0966,0.147 -7.4299,-2.353 -4,-7.5 z"
           id="path14" />
      </g>
      <g
         id="g15">
        <path
           style="opacity:1"
           fill="#111111"
           d="m 62.5,124.5 c 11.4893,-1.345 16.3226,3.655 14.5,15 -7.5924,8.481 -14.259,7.814 -20,-2 -0.6667,-2 -0.6667,-4 0,-6 1.6665,-2.496 3.4998,-4.829 5.5,-7 z"
           id="path15" />
      </g>
      <g
         id="g16">
        <path
           style="opacity:1"
           fill="#efefef"
           d="m 64.5,129.5 c 7.7436,-0.452 10.0769,2.715 7,9.5 -5.3828,2.961 -8.7161,1.461 -10,-4.5 0.5924,-1.923 1.5924,-3.589 3,-5 z"
           id="path16" />
      </g>
    </g>
  </g>
  <text
     xml:space="preserve"
     style="font-style:italic;font-variant:normal;font-weight:500;font-stretch:normal;font-size:50.8px;line-height:0.12;font-family:'CMU Concrete';-inkscape-font-specification:'CMU Concrete Medium Italic';opacity:1;fill:#000000;fill-opacity:1;stroke:#000000;stroke-width:1.779;stroke-linecap:round;stroke-linejoin:bevel;stroke-miterlimit:5;stroke-dasharray:none;stroke-dashoffset:0;stroke-opacity:1"
     x="83.677856"
     y="278.21622"
     id="text1"><tspan
       id="tspan1"
       style="stroke-width:1.779;stroke-dasharray:none"
       x="83.677856"
       y="278.21622">Tope</tspan></text>
</svg>
