<?xml version="1.0" encoding="UTF-8"?>
<!DOCTYPE svg PUBLIC "-//W3C//DTD SVG 1.1//EN" "http://www.w3.org/Graphics/SVG/1.1/DTD/svg11.dtd">
<svg xmlns="http://www.w3.org/2000/svg" version="1.1" width="200px" height="200px" style="shape-rendering:geometricPrecision; text-rendering:geometricPrecision; image-rendering:optimizeQuality; fill-rule:evenodd; clip-rule:evenodd" xmlns:xlink="http://www.w3.org/1999/xlink">
<g><path style="opacity:1" fill="#d0e3f8" d="M -0.5,-0.5 C 22.5,-0.5 45.5,-0.5 68.5,-0.5C 67.5423,0.961599 66.3756,2.29493 65,3.5C 64.3333,9.83333 64.3333,16.1667 65,22.5C 66.484,26.4877 69.3174,28.1544 73.5,27.5C 73.6665,38.8382 73.4999,50.1716 73,61.5C 58.915,83.3382 44.5817,105.005 30,126.5C 24.4348,141.534 28.9348,152.368 43.5,159C 60.3333,159.167 77.1667,159.333 94,159.5C 112.216,159.64 130.383,159.14 148.5,158C 159.455,152.476 163.955,143.643 162,131.5C 160.149,127.797 158.315,124.13 156.5,120.5C 159.361,113.093 160.194,105.426 159,97.5C 151.601,83.7035 143.934,70.0369 136,56.5C 133.293,54.1145 130.46,53.9478 127.5,56C 125.329,59.6589 122.996,63.1589 120.5,66.5C 118.854,65.2214 117.687,63.5547 117,61.5C 116.667,56.8333 116.333,52.1667 116,47.5C 114.951,46.4829 113.784,46.3162 112.5,47C 111.365,51.7477 111.198,56.581 112,61.5C 113.713,65.0946 115.547,68.5946 117.5,72C 116.888,74.0577 115.888,75.891 114.5,77.5C 111.169,73.5084 108.336,69.1751 106,64.5C 105.5,52.1712 105.333,39.8378 105.5,27.5C 107.5,27.5 109.5,27.5 111.5,27.5C 111.334,31.5138 111.501,35.5138 112,39.5C 113.714,40.9255 115.047,40.5922 116,38.5C 116.499,34.8484 116.665,31.1817 116.5,27.5C 120.683,28.1544 123.516,26.4877 125,22.5C 125.667,16.5 125.667,10.5 125,4.5C 123.975,2.31305 122.475,0.646381 120.5,-0.5C 146.833,-0.5 173.167,-0.5 199.5,-0.5C 199.5,66.1667 199.5,132.833 199.5,199.5C 132.833,199.5 66.1667,199.5 -0.5,199.5C -0.5,132.833 -0.5,66.1667 -0.5,-0.5 Z"/></g>
<g><path style="opacity:1" fill="#0b0c0d" d="M 68.5,-0.5 C 73.8333,-0.5 79.1667,-0.5 84.5,-0.5C 86.1157,1.41582 85.7823,2.91582 83.5,4C 78.8452,4.49915 74.1785,4.66582 69.5,4.5C 69.1903,10.7576 69.5236,16.9242 70.5,23C 86.8333,23.6667 103.167,23.6667 119.5,23C 120.833,17 120.833,11 119.5,5C 110.5,4.66667 101.5,4.33333 92.5,4C 91.2721,2.50978 91.2721,1.00978 92.5,-0.5C 101.833,-0.5 111.167,-0.5 120.5,-0.5C 122.475,0.646381 123.975,2.31305 125,4.5C 125.667,10.5 125.667,16.5 125,22.5C 123.516,26.4877 120.683,28.1544 116.5,27.5C 116.665,31.1817 116.499,34.8484 116,38.5C 115.047,40.5922 113.714,40.9255 112,39.5C 111.501,35.5138 111.334,31.5138 111.5,27.5C 109.5,27.5 107.5,27.5 105.5,27.5C 105.333,39.8378 105.5,52.1712 106,64.5C 108.336,69.1751 111.169,73.5084 114.5,77.5C 115.888,75.891 116.888,74.0577 117.5,72C 115.547,68.5946 113.713,65.0946 112,61.5C 111.198,56.581 111.365,51.7477 112.5,47C 113.784,46.3162 114.951,46.4829 116,47.5C 116.333,52.1667 116.667,56.8333 117,61.5C 117.687,63.5547 118.854,65.2214 120.5,66.5C 122.996,63.1589 125.329,59.6589 127.5,56C 130.46,53.9478 133.293,54.1145 136,56.5C 143.934,70.0369 151.601,83.7035 159,97.5C 160.194,105.426 159.361,113.093 156.5,120.5C 158.315,124.13 160.149,127.797 162,131.5C 163.955,143.643 159.455,152.476 148.5,158C 130.383,159.14 112.216,159.64 94,159.5C 77.1667,159.333 60.3333,159.167 43.5,159C 28.9348,152.368 24.4348,141.534 30,126.5C 44.5817,105.005 58.915,83.3382 73,61.5C 73.4999,50.1716 73.6665,38.8382 73.5,27.5C 69.3174,28.1544 66.484,26.4877 65,22.5C 64.3333,16.1667 64.3333,9.83333 65,3.5C 66.3756,2.29493 67.5423,0.961599 68.5,-0.5 Z"/></g>
<g><path style="opacity:1" fill="#ccdef3" d="M 84.5,-0.5 C 87.1667,-0.5 89.8333,-0.5 92.5,-0.5C 91.2721,1.00978 91.2721,2.50978 92.5,4C 101.5,4.33333 110.5,4.66667 119.5,5C 120.833,11 120.833,17 119.5,23C 103.167,23.6667 86.8333,23.6667 70.5,23C 69.5236,16.9242 69.1903,10.7576 69.5,4.5C 74.1785,4.66582 78.8452,4.49915 83.5,4C 85.7823,2.91582 86.1157,1.41582 84.5,-0.5 Z"/></g>
<g><path style="opacity:1" fill="#0e0f10" d="M 142.5,2.5 C 156.057,1.98781 160.557,7.98781 156,20.5C 152.257,24.2594 147.757,25.4261 142.5,24C 136.823,20.3637 134.99,15.197 137,8.5C 138.36,5.97739 140.193,3.97739 142.5,2.5 Z"/></g>
<g><path style="opacity:1" fill="#c9dbef" d="M 143.5,7.5 C 150.827,6.32925 153.994,9.32925 153,16.5C 148.577,21.8987 144.577,21.5654 141,15.5C 140.018,12.2253 140.851,9.55863 143.5,7.5 Z"/></g>
<g><path style="opacity:1" fill="#c8daee" d="M 68.5,97.5 C 80.5479,96.8549 92.2146,97.5216 103.5,99.5C 101.435,116.539 108.435,128.039 124.5,134C 131.63,134.656 138.63,134.322 145.5,133C 147.238,136.844 146.571,140.177 143.5,143C 111.586,144.652 79.5855,144.985 47.5,144C 43.7882,141.398 42.6215,137.898 44,133.5C 47.5814,128.672 50.9148,123.672 54,118.5C 53.7677,113.576 52.101,113.242 49,117.5C 45.9148,122.672 42.5814,127.672 39,132.5C 37.4695,139.267 39.6362,144.434 45.5,148C 78.1667,148.667 110.833,148.667 143.5,148C 148.73,146.065 151.397,142.232 151.5,136.5C 151.195,133.724 150.195,131.224 148.5,129C 150.333,127.833 151.833,126.333 153,124.5C 158.636,132.223 158.97,140.223 154,148.5C 150.896,151.933 147.063,154.1 142.5,155C 110.833,155.667 79.1667,155.667 47.5,155C 35.6936,151.566 30.8603,143.732 33,131.5C 47.6667,108.833 62.3333,86.1667 77,63.5C 78.4375,51.5758 78.9375,39.5758 78.5,27.5C 80.5,27.5 82.5,27.5 84.5,27.5C 84.6665,39.8378 84.4999,52.1712 84,64.5C 75.2485,78.338 66.2485,92.0046 57,105.5C 56.51,106.793 56.3433,108.127 56.5,109.5C 57.8734,109.657 59.2068,109.49 60.5,109C 63.0297,104.987 65.6964,101.154 68.5,97.5 Z"/></g>
<g><path style="opacity:1" fill="#cfe2f7" d="M 89.5,27.5 C 93.1667,27.5 96.8333,27.5 100.5,27.5C 100.333,39.5046 100.5,51.5046 101,63.5C 101.667,65.5 102.333,67.5 103,69.5C 106.244,73.7436 109.078,78.2436 111.5,83C 109.85,85.99 108.183,88.99 106.5,92C 94.8333,92.6667 83.1667,92.6667 71.5,92C 78.4752,83.2194 84.3085,73.7194 89,63.5C 89.4999,51.5046 89.6665,39.5046 89.5,27.5 Z"/></g>
<g><path style="opacity:1" fill="#0e0f10" d="M 155.5,39.5 C 166.351,38.1926 171.518,42.8593 171,53.5C 168.426,60.1479 163.593,62.6479 156.5,61C 150.092,57.6772 147.925,52.5105 150,45.5C 151.36,42.9774 153.193,40.9774 155.5,39.5 Z"/></g>
<g><path style="opacity:1" fill="#cadcf0" d="M 156.5,44.5 C 165.786,43.4117 168.453,47.0784 164.5,55.5C 158.752,58.0389 155.085,56.3722 153.5,50.5C 153.984,48.1992 154.984,46.1992 156.5,44.5 Z"/></g>
<g><path style="opacity:1" fill="#cbdef2" d="M 130.5,59.5 C 131.496,59.4142 132.329,59.7476 133,60.5C 140.855,73.544 148.189,86.8773 155,100.5C 155.629,122.201 145.129,131.701 123.5,129C 110.193,122.415 105.359,111.915 109,97.5C 115.925,84.6438 123.092,71.9771 130.5,59.5 Z"/></g>
<g><path style="opacity:1" fill="#090a0b" d="M 127.5,90.5 C 127.56,91.0431 127.893,91.3764 128.5,91.5C 129.489,87.8927 129.823,84.226 129.5,80.5C 130.255,78.5337 131.421,78.2004 133,79.5C 133.333,83.8333 133.667,88.1667 134,92.5C 135.715,89.6026 138.215,88.2693 141.5,88.5C 140.051,92.4724 137.551,95.8057 134,98.5C 133.333,102.167 133.333,105.833 134,109.5C 135.833,107.667 137.667,105.833 139.5,104C 141.319,103.217 142.652,103.717 143.5,105.5C 140.894,109.609 137.727,113.276 134,116.5C 133.506,118.134 133.34,119.801 133.5,121.5C 132.167,121.5 130.833,121.5 129.5,121.5C 129.66,119.801 129.494,118.134 129,116.5C 125.451,113.287 122.284,109.787 119.5,106C 120.059,103.812 121.393,103.146 123.5,104C 125.333,105.833 127.167,107.667 129,109.5C 129.667,105.833 129.667,102.167 129,98.5C 125.449,95.8057 122.949,92.4724 121.5,88.5C 123.858,88.2525 125.858,88.9192 127.5,90.5 Z"/></g>
<g><path style="opacity:1" fill="#6b7580" d="M 129.5,80.5 C 129.823,84.226 129.489,87.8927 128.5,91.5C 127.893,91.3764 127.56,91.0431 127.5,90.5C 128.167,87.1667 128.833,83.8333 129.5,80.5 Z"/></g>
<g><path style="opacity:1" fill="#34393e" d="M 68.5,97.5 C 80.3217,96.5049 92.3217,96.1716 104.5,96.5C 104.737,97.791 104.404,98.791 103.5,99.5C 92.2146,97.5216 80.5479,96.8549 68.5,97.5 Z"/></g>
<g><path style="opacity:1" fill="#0f1011" d="M 86.5,102.5 C 94.8652,102.36 98.3652,106.36 97,114.5C 94.4586,119.069 90.6253,120.569 85.5,119C 78.7133,113.18 79.0466,107.68 86.5,102.5 Z"/></g>
<g><path style="opacity:1" fill="#c6d8ec" d="M 87.5,107.5 C 92.0685,107.083 93.5685,109.083 92,113.5C 88.828,116.388 86.6614,115.722 85.5,111.5C 85.7517,109.927 86.4183,108.594 87.5,107.5 Z"/></g>
<g><path style="opacity:1" fill="#0d0e0f" d="M 65.5,118.5 C 75.5358,118.032 79.7024,122.699 78,132.5C 75.0812,138.025 70.5812,139.858 64.5,138C 56.2873,131.096 56.6207,124.596 65.5,118.5 Z"/></g>
<g><path style="opacity:1" fill="#c7d9ed" d="M 66.5,123.5 C 73.7454,123.555 75.7454,126.722 72.5,133C 66.2401,135.412 63.4068,133.245 64,126.5C 64.6979,125.309 65.5313,124.309 66.5,123.5 Z"/></g>
<g><path style="opacity:1" fill="#08090a" d="M 68.5,167.5 C 73.1667,167.5 77.8333,167.5 82.5,167.5C 82.5,168.833 82.5,170.167 82.5,171.5C 80.8333,171.5 79.1667,171.5 77.5,171.5C 77.5,176.5 77.5,181.5 77.5,186.5C 76.1667,186.5 74.8333,186.5 73.5,186.5C 73.5,181.5 73.5,176.5 73.5,171.5C 71.8333,171.5 70.1667,171.5 68.5,171.5C 68.5,170.167 68.5,168.833 68.5,167.5 Z"/></g>
<g><path style="opacity:1" fill="#111213" d="M 87.5,171.5 C 95.1485,171.314 98.3152,174.981 97,182.5C 94.7742,186.861 91.2742,188.361 86.5,187C 80.9742,181.357 81.3075,176.19 87.5,171.5 Z"/></g>
<g><path style="opacity:1" fill="#111213" d="M 107.5,171.5 C 113.706,172.558 115.872,176.224 114,182.5C 111.961,186.136 108.794,187.802 104.5,187.5C 104.5,189.5 104.5,191.5 104.5,193.5C 103.167,193.5 101.833,193.5 100.5,193.5C 100.5,186.5 100.5,179.5 100.5,172.5C 102.144,172.286 103.644,172.62 105,173.5C 105.995,172.934 106.828,172.267 107.5,171.5 Z"/></g>
<g><path style="opacity:1" fill="#141517" d="M 121.5,171.5 C 128.167,170.833 131.167,173.833 130.5,180.5C 127.428,180.183 124.428,180.516 121.5,181.5C 121.709,182.086 122.043,182.586 122.5,183C 124.81,183.497 127.143,183.663 129.5,183.5C 129.763,186.734 128.263,188.068 125,187.5C 117.841,186.607 115.508,182.607 118,175.5C 118.69,173.65 119.856,172.316 121.5,171.5 Z"/></g>
<g><path style="opacity:1" fill="#c4d6ea" d="M 88.5,175.5 C 93.2582,176.022 94.5915,178.522 92.5,183C 86.4128,183.205 85.0795,180.705 88.5,175.5 Z"/></g>
<g><path style="opacity:1" fill="#becfe3" d="M 106.5,175.5 C 110.225,175.78 111.392,177.78 110,181.5C 108.599,183.192 106.766,183.859 104.5,183.5C 104.107,180.487 104.774,177.82 106.5,175.5 Z"/></g>
<g><path style="opacity:1" fill="#c4d6e9" d="M 121.5,175.5 C 123.288,175.215 124.955,175.548 126.5,176.5C 125.667,176.833 124.833,177.167 124,177.5C 122.624,177.316 121.791,176.649 121.5,175.5 Z"/></g>
</svg>
