<?xml version="1.0" encoding="UTF-8"?>
<!DOCTYPE svg PUBLIC "-//W3C//DTD SVG 1.1//EN" "http://www.w3.org/Graphics/SVG/1.1/DTD/svg11.dtd">
<svg xmlns="http://www.w3.org/2000/svg" version="1.1" width="200px" height="200px" style="shape-rendering:geometricPrecision; text-rendering:geometricPrecision; image-rendering:optimizeQuality; fill-rule:evenodd; clip-rule:evenodd" xmlns:xlink="http://www.w3.org/1999/xlink">
<g><path style="opacity:1" fill="#3d5977" d="M -0.5,-0.5 C 66.1667,-0.5 132.833,-0.5 199.5,-0.5C 199.5,66.1667 199.5,132.833 199.5,199.5C 132.833,199.5 66.1667,199.5 -0.5,199.5C -0.5,132.833 -0.5,66.1667 -0.5,-0.5 Z"/></g>
<g><path style="opacity:1" fill="#eceef1" d="M 78.5,18.5 C 82.1667,18.5 85.8333,18.5 89.5,18.5C 89.5,19.5 89.5,20.5 89.5,21.5C 86.1667,21.5 82.8333,21.5 79.5,21.5C 79.5,25.5 79.5,29.5 79.5,33.5C 90.8333,33.5 102.167,33.5 113.5,33.5C 113.5,29.5 113.5,25.5 113.5,21.5C 107.167,21.5 100.833,21.5 94.5,21.5C 94.5,20.5 94.5,19.5 94.5,18.5C 101.175,18.3337 107.842,18.5004 114.5,19C 115,19.5 115.5,20 116,20.5C 116.667,25.1667 116.667,29.8333 116,34.5C 114.556,36.1554 112.722,36.822 110.5,36.5C 109.5,48.5 108.5,48.5 107.5,36.5C 106.167,36.5 104.833,36.5 103.5,36.5C 103.334,44.84 103.5,53.1733 104,61.5C 105.586,64.3405 107.42,67.0072 109.5,69.5C 110.415,68.6721 111.081,67.6721 111.5,66.5C 108.017,61.3581 106.684,55.6914 107.5,49.5C 108.5,49.5 109.5,49.5 110.5,49.5C 110.078,53.7121 110.744,57.7121 112.5,61.5C 113.167,62.8333 113.833,62.8333 114.5,61.5C 115.635,59.2011 116.968,57.0344 118.5,55C 119.833,54.3333 121.167,54.3333 122.5,55C 128.631,64.091 134.131,73.591 139,83.5C 139.746,88.4541 139.246,93.2874 137.5,98C 141.237,104.766 141.404,111.599 138,118.5C 135.592,120.956 132.759,122.789 129.5,124C 106.437,124.969 83.4366,124.635 60.5,123C 53.1562,118.464 50.6562,111.964 53,103.5C 62.6667,88.5 72.3333,73.5 82,58.5C 82.4997,51.1742 82.6663,43.8409 82.5,36.5C 80.2776,36.822 78.4443,36.1554 77,34.5C 75.9456,28.8855 76.4456,23.5522 78.5,18.5 Z"/></g>
<g><path style="opacity:1" fill="#f4f5f7" d="M 127.5,20.5 C 134.669,19.5131 138.169,22.5131 138,29.5C 135.975,34.1447 132.475,35.6447 127.5,34C 122.209,29.5503 122.209,25.0503 127.5,20.5 Z"/></g>
<g><path style="opacity:1" fill="#49637f" d="M 128.5,23.5 C 135.004,23.1377 136.671,25.6377 133.5,31C 126.745,31.7558 125.078,29.2558 128.5,23.5 Z"/></g>
<g><path style="opacity:1" fill="#435d7b" d="M 85.5,36.5 C 86.8333,36.5 88.1667,36.5 89.5,36.5C 89.6664,44.84 89.4997,53.1733 89,61.5C 82.9015,70.7035 77.0682,80.0368 71.5,89.5C 71.8333,90.1667 72.1667,90.8333 72.5,91.5C 74.8532,89.1401 76.8532,86.4735 78.5,83.5C 86.5,82.1667 94.5,82.1667 102.5,83.5C 100.43,94.8586 104.763,102.692 115.5,107C 120.174,107.814 124.674,107.314 129,105.5C 131.074,108.137 130.907,110.637 128.5,113C 107.167,113.667 85.8333,113.667 64.5,113C 62.6041,111.192 62.1041,109.025 63,106.5C 65.9741,102.882 68.1408,98.8816 69.5,94.5C 68.325,94.281 67.325,94.6143 66.5,95.5C 64.1365,98.6985 61.9698,102.032 60,105.5C 58.6218,109.987 59.7885,113.487 63.5,116C 85.5,116.667 107.5,116.667 129.5,116C 131.333,115.5 132.5,114.333 133,112.5C 133.684,109.62 133.517,106.787 132.5,104C 134.356,100.512 135.856,100.679 137,104.5C 139.053,111.549 136.887,116.716 130.5,120C 107.5,120.667 84.5,120.667 61.5,120C 55.9566,116.223 54.1232,111.056 56,104.5C 65.916,89.67 75.5826,74.67 85,59.5C 85.4997,51.8406 85.6664,44.1739 85.5,36.5 Z"/></g>
<g><path style="opacity:1" fill="#6e8399" d="M 100.5,60.5 C 99.508,53.0182 99.1746,45.3516 99.5,37.5C 97.5,37.5 95.5,37.5 93.5,37.5C 93.8254,45.3516 93.492,53.0182 92.5,60.5C 92.5,52.5 92.5,44.5 92.5,36.5C 95.1667,36.5 97.8333,36.5 100.5,36.5C 100.5,44.5 100.5,52.5 100.5,60.5 Z"/></g>
<g><path style="opacity:1" fill="#3e5a78" d="M 100.5,60.5 C 102.374,65.0512 104.707,69.3846 107.5,73.5C 106.752,75.3325 105.752,76.9991 104.5,78.5C 96.855,79.6648 89.1883,79.8315 81.5,79C 85.8185,73.1905 89.4852,67.0239 92.5,60.5C 93.492,53.0182 93.8254,45.3516 93.5,37.5C 95.5,37.5 97.5,37.5 99.5,37.5C 99.1746,45.3516 99.508,53.0182 100.5,60.5 Z"/></g>
<g><path style="opacity:1" fill="#f1f3f5" d="M 136.5,44.5 C 144.885,43.7159 148.051,47.3826 146,55.5C 141.205,61.0894 136.872,60.7561 133,54.5C 132.333,52.5 132.333,50.5 133,48.5C 134.376,47.2949 135.542,45.9616 136.5,44.5 Z"/></g>
<g><path style="opacity:1" fill="#49637f" d="M 137.5,47.5 C 143.643,48.0262 144.976,50.8595 141.5,56C 138.783,57.033 136.949,56.1997 136,53.5C 135.252,51.1599 135.752,49.1599 137.5,47.5 Z"/></g>
<g><path style="opacity:1" fill="#445e7b" d="M 119.5,58.5 C 120.496,58.4142 121.329,58.7476 122,59.5C 127.992,68.6386 132.826,78.3053 136.5,88.5C 133.099,103.701 124.432,107.867 110.5,101C 104.719,95.8819 103.219,89.7152 106,82.5C 110.765,74.6346 115.265,66.6346 119.5,58.5 Z"/></g>
<g><path style="opacity:1" fill="#eef0f3" d="M 117.5,89.5 C 117.56,90.0431 117.893,90.3764 118.5,90.5C 119.797,88.0268 119.797,85.6934 118.5,83.5C 116.984,81.8143 115.65,79.981 114.5,78C 115.648,76.274 116.815,76.4407 118,78.5C 119.667,67.8333 121.333,67.8333 123,78.5C 124.363,76.2157 125.863,76.049 127.5,78C 124.916,80.5609 123.249,83.5609 122.5,87C 122.667,88.1667 122.833,89.3333 123,90.5C 124.333,89.1667 125.667,87.8333 127,86.5C 127.692,87.0253 128.192,87.6919 128.5,88.5C 126.851,90.6499 125.018,92.6499 123,94.5C 122.51,95.7932 122.343,97.1266 122.5,98.5C 121.5,98.5 120.5,98.5 119.5,98.5C 119.649,97.448 119.483,96.448 119,95.5C 116.65,93.3171 114.483,90.9837 112.5,88.5C 112.808,87.6919 113.308,87.0253 114,86.5C 115.518,87.1634 116.685,88.1634 117.5,89.5 Z"/></g>
<g><path style="opacity:1" fill="#a1afbd" d="M 118.5,83.5 C 119.797,85.6934 119.797,88.0268 118.5,90.5C 117.893,90.3764 117.56,90.0431 117.5,89.5C 118.461,87.7354 118.795,85.7354 118.5,83.5 Z"/></g>
<g><path style="opacity:1" fill="#eceff2" d="M 89.5,86.5 C 95.8302,85.6662 98.6635,88.3329 98,94.5C 92.9428,99.075 89.1095,98.2417 86.5,92C 87.1242,89.9149 88.1242,88.0816 89.5,86.5 Z"/></g>
<g><path style="opacity:1" fill="#4d6682" d="M 91.5,89.5 C 95.1612,89.3501 96.1612,90.8501 94.5,94C 90.7071,94.4866 89.7071,92.9866 91.5,89.5 Z"/></g>
<g><path style="opacity:1" fill="#eff1f4" d="M 75.5,97.5 C 85.0241,96.7317 87.6908,100.565 83.5,109C 79.2204,111.477 75.7204,110.644 73,106.5C 71.9271,102.9 72.7605,99.9003 75.5,97.5 Z"/></g>
<g><path style="opacity:1" fill="#4a6380" d="M 76.5,100.5 C 82.5548,99.9421 83.8881,102.109 80.5,107C 75.7954,107.106 74.4621,104.939 76.5,100.5 Z"/></g>
<g><path style="opacity:1" fill="#ebeef1" d="M 78.5,150.5 C 79.404,149.791 79.7373,148.791 79.5,147.5C 77.5853,147.784 75.9187,147.451 74.5,146.5C 76.8927,145.79 79.3927,145.123 82,144.5C 84.8122,145.498 87.6456,145.664 90.5,145C 87.8295,146.544 84.9961,147.71 82,148.5C 81.3127,152.644 80.8127,156.811 80.5,161C 80.6004,163.302 81.267,165.302 82.5,167C 79.5576,168.124 76.5576,168.458 73.5,168C 75.0609,167.682 76.2276,166.849 77,165.5C 77.5008,160.492 78.0008,155.492 78.5,150.5 Z"/></g>
<g><path style="opacity:1" fill="#94a3b4" d="M 74.5,146.5 C 75.9187,147.451 77.5853,147.784 79.5,147.5C 79.7373,148.791 79.404,149.791 78.5,150.5C 76.5599,147.959 74.3932,147.959 72,150.5C 71.7207,148.588 72.5541,147.254 74.5,146.5 Z"/></g>
<g><path style="opacity:1" fill="#e8ebef" d="M 106.5,147.5 C 107.201,150.335 107.367,153.335 107,156.5C 108.05,153.76 109.883,152.26 112.5,152C 114.048,156.941 113.382,161.608 110.5,166C 108.559,167.903 106.226,168.736 103.5,168.5C 104.115,173.087 102.948,177.087 100,180.5C 99.9797,176.806 100.48,173.14 101.5,169.5C 100.145,168.325 100.312,167.325 102,166.5C 103.259,159.985 104.759,153.651 106.5,147.5 Z"/></g>
<g><path style="opacity:1" fill="#46607d" d="M 109.5,154.5 C 110.955,158.053 110.622,161.553 108.5,165C 107.207,165.49 105.873,165.657 104.5,165.5C 105.358,161.452 107.025,157.785 109.5,154.5 Z"/></g>
<g><path style="opacity:1" fill="#e6e9ed" d="M 122.5,160.5 C 120.564,162.243 120.23,164.243 121.5,166.5C 122.814,165.687 123.981,164.687 125,163.5C 124.813,166.356 123.146,168.023 120,168.5C 116.096,162.658 116.93,157.491 122.5,153C 124.025,151.991 125.692,151.491 127.5,151.5C 128.125,155.927 126.459,158.927 122.5,160.5 Z"/></g>
<g><path style="opacity:1" fill="#4c6581" d="M 122.5,160.5 C 121.624,160.631 120.957,160.298 120.5,159.5C 121.018,157.1 122.185,155.1 124,153.5C 124.833,156.171 124.333,158.504 122.5,160.5 Z"/></g>
<g><path style="opacity:1" fill="#e8ebef" d="M 95.5,151.5 C 96.4959,151.414 97.3292,151.748 98,152.5C 98.9996,159.5 96.4996,164.833 90.5,168.5C 86.7873,161.384 88.454,155.717 95.5,151.5 Z"/></g>
<g><path style="opacity:1" fill="#506884" d="M 93.5,154.5 C 95.9574,157.545 95.9574,160.878 93.5,164.5C 92.675,165.386 91.675,165.719 90.5,165.5C 90.4232,161.468 91.4232,157.801 93.5,154.5 Z"/></g>
</svg>
