<?xml version="1.0" encoding="UTF-8"?>
<!DOCTYPE svg PUBLIC "-//W3C//DTD SVG 1.1//EN" "http://www.w3.org/Graphics/SVG/1.1/DTD/svg11.dtd">
<svg xmlns="http://www.w3.org/2000/svg" version="1.1" width="200px" height="200px" style="shape-rendering:geometricPrecision; text-rendering:geometricPrecision; image-rendering:optimizeQuality; fill-rule:evenodd; clip-rule:evenodd" xmlns:xlink="http://www.w3.org/1999/xlink">
<g><path style="opacity:1" fill="#fefefe" d="M -0.5,-0.5 C 66.1667,-0.5 132.833,-0.5 199.5,-0.5C 199.5,66.1667 199.5,132.833 199.5,199.5C 132.833,199.5 66.1667,199.5 -0.5,199.5C -0.5,132.833 -0.5,66.1667 -0.5,-0.5 Z"/></g>
<g><path style="opacity:1" fill="#101010" d="M 78.5,32.5 C 82.226,32.1774 85.8927,32.5108 89.5,33.5C 86.2959,34.2036 83.1292,34.8702 80,35.5C 79.2073,39.423 79.374,43.2564 80.5,47C 91.1667,47.6667 101.833,47.6667 112.5,47C 113.626,43.2564 113.793,39.423 113,35.5C 106.888,34.8519 100.721,34.1853 94.5,33.5C 101.142,32.3358 107.808,32.1691 114.5,33C 115,33.5 115.5,34 116,34.5C 116.667,38.8333 116.667,43.1667 116,47.5C 114.826,49.6709 112.993,50.6709 110.5,50.5C 110.5,53.1667 110.5,55.8333 110.5,58.5C 109.5,58.5 108.5,58.5 107.5,58.5C 107.5,55.8333 107.5,53.1667 107.5,50.5C 106.167,50.5 104.833,50.5 103.5,50.5C 103.334,58.84 103.5,67.1733 104,75.5C 105.586,78.3405 107.42,81.0072 109.5,83.5C 110.553,82.5617 111.22,81.395 111.5,80C 108.111,75.0417 106.777,69.5417 107.5,63.5C 108.5,63.5 109.5,63.5 110.5,63.5C 110.078,67.7121 110.744,71.7121 112.5,75.5C 113.167,76.8333 113.833,76.8333 114.5,75.5C 115.457,73.0824 116.791,70.9157 118.5,69C 119.833,68.3333 121.167,68.3333 122.5,69C 128.043,77.2502 133.21,85.7502 138,94.5C 140.37,100.628 139.87,106.461 136.5,112C 141.833,119.333 141.833,126.667 136.5,134C 134.725,135.439 132.725,136.439 130.5,137C 107.5,137.667 84.5,137.667 61.5,137C 53.3901,132.936 50.5567,126.436 53,117.5C 62.6667,102.5 72.3333,87.5 82,72.5C 82.4997,65.1742 82.6663,57.8409 82.5,50.5C 79.7615,51.0352 77.9282,50.0352 77,47.5C 75.9548,42.2145 76.4548,37.2145 78.5,32.5 Z"/></g>
<g><path style="opacity:1" fill="#191919" d="M 128.5,33.5 C 135.568,33.2614 138.734,36.5947 138,43.5C 135.774,47.8608 132.274,49.3608 127.5,48C 122.003,42.6829 122.336,37.8495 128.5,33.5 Z"/></g>
<g><path style="opacity:1" fill="#ebebeb" d="M 128.5,37.5 C 135.004,37.1377 136.671,39.6377 133.5,45C 126.745,45.7558 125.078,43.2558 128.5,37.5 Z"/></g>
<g><path style="opacity:1" fill="#f8f8f8" d="M 85.5,50.5 C 86.8333,50.5 88.1667,50.5 89.5,50.5C 89.6664,58.84 89.4997,67.1733 89,75.5C 83.0355,84.5986 77.2022,93.7652 71.5,103C 71.8499,104.257 72.5165,104.591 73.5,104C 75.1667,101.667 76.8333,99.3333 78.5,97C 86.5208,96.1684 94.5208,96.3351 102.5,97.5C 101.022,113.524 108.356,121.357 124.5,121C 129.552,118.38 131.386,119.88 130,125.5C 129.5,126 129,126.5 128.5,127C 107.167,127.667 85.8333,127.667 64.5,127C 62.6041,125.192 62.1041,123.025 63,120.5C 65.8718,116.817 68.0384,112.817 69.5,108.5C 68.325,108.281 67.325,108.614 66.5,109.5C 64.1365,112.699 61.9698,116.032 60,119.5C 58.6215,123.898 59.7882,127.398 63.5,130C 85.5,130.667 107.5,130.667 129.5,130C 133.53,126.834 134.53,122.834 132.5,118C 134.379,113.207 135.879,113.373 137,118.5C 138.71,125.385 136.544,130.551 130.5,134C 107.833,134.667 85.1667,134.667 62.5,134C 56.0919,130.677 53.9252,125.511 56,118.5C 65.0844,103.996 74.4177,89.6627 84,75.5C 85.4057,67.2508 85.9057,58.9174 85.5,50.5 Z"/></g>
<g><path style="opacity:1" fill="#f3f3f3" d="M 92.5,50.5 C 95.1667,50.5 97.8333,50.5 100.5,50.5C 100.334,59.1731 100.5,67.8397 101,76.5C 103.182,80.0102 105.349,83.5102 107.5,87C 106.38,88.7374 105.38,90.5708 104.5,92.5C 96.8333,93.8333 89.1667,93.8333 81.5,92.5C 85.1966,87.3019 88.6966,81.9686 92,76.5C 92.4998,67.8397 92.6664,59.1731 92.5,50.5 Z"/></g>
<g><path style="opacity:1" fill="#151515" d="M 136.5,58.5 C 144.885,57.7159 148.051,61.3826 146,69.5C 142.341,73.1151 138.341,73.4485 134,70.5C 131.523,65.6692 132.356,61.6692 136.5,58.5 Z"/></g>
<g><path style="opacity:1" fill="#f7f7f7" d="M 137.5,61.5 C 142.881,61.4517 144.547,63.9517 142.5,69C 135.745,69.7558 134.078,67.2558 137.5,61.5 Z"/></g>
<g><path style="opacity:1" fill="#f4f4f4" d="M 119.5,71.5 C 121.074,71.9371 122.241,72.9371 123,74.5C 126.414,80.9969 130.081,87.3303 134,93.5C 138.909,103.772 136.409,111.605 126.5,117C 119.918,119.631 114.085,118.464 109,113.5C 104.557,108.062 103.557,102.062 106,95.5C 110.777,87.6073 115.277,79.6073 119.5,71.5 Z"/></g>
<g><path style="opacity:1" fill="#161616" d="M 117.5,91.5 C 117.56,92.0431 117.893,92.3764 118.5,92.5C 119.474,90.2573 119.808,87.924 119.5,85.5C 120.209,84.596 121.209,84.2627 122.5,84.5C 122.336,87.1873 122.503,89.854 123,92.5C 124.363,90.2157 125.863,90.049 127.5,92C 122.933,94.6333 121.433,98.4667 123,103.5C 124.264,101.393 126.097,100.393 128.5,100.5C 127.736,103.787 125.903,106.454 123,108.5C 122.974,111.105 121.807,112.271 119.5,112C 117.586,108.411 115.252,105.078 112.5,102C 113.025,101.308 113.692,100.808 114.5,100.5C 116.149,101.648 117.649,102.981 119,104.5C 119.667,102.167 119.667,99.8333 119,97.5C 117.108,95.9458 115.608,94.1124 114.5,92C 115.176,90.3167 116.176,90.1501 117.5,91.5 Z"/></g>
<g><path style="opacity:1" fill="#828282" d="M 119.5,85.5 C 119.808,87.924 119.474,90.2573 118.5,92.5C 117.893,92.3764 117.56,92.0431 117.5,91.5C 118.167,89.5 118.833,87.5 119.5,85.5 Z"/></g>
<g><path style="opacity:1" fill="#141414" d="M 89.5,100.5 C 97.2993,100.096 99.6326,103.263 96.5,110C 91.3233,112.745 88.3233,111.245 87.5,105.5C 87.4365,103.486 88.1032,101.819 89.5,100.5 Z"/></g>
<g><path style="opacity:1" fill="#e1e1e1" d="M 90.5,103.5 C 94.1378,102.737 95.6378,104.07 95,107.5C 91.3307,109.009 89.8307,107.676 90.5,103.5 Z"/></g>
<g><path style="opacity:1" fill="#151515" d="M 76.5,110.5 C 85.0217,110.876 87.355,114.876 83.5,122.5C 75.7649,125.258 72.2649,122.591 73,114.5C 74.3756,113.295 75.5423,111.962 76.5,110.5 Z"/></g>
<g><path style="opacity:1" fill="#eaeaea" d="M 77.5,113.5 C 81.9764,113.8 83.3097,115.967 81.5,120C 75.3389,120.878 74.0055,118.711 77.5,113.5 Z"/></g>
<g><path style="opacity:1" fill="#575757" d="M 77.5,144.5 C 78.552,144.351 79.552,144.517 80.5,145C 78.4127,145.792 76.5793,146.959 75,148.5C 74.3333,147.833 74.3333,147.167 75,146.5C 75.9947,145.934 76.828,145.267 77.5,144.5 Z"/></g>
<g><path style="opacity:1" fill="#353535" d="M 92.5,141.5 C 94.7349,142.248 94.4016,143.081 91.5,144C 89.1902,144.497 86.8568,144.663 84.5,144.5C 83.7765,149.726 82.2765,154.726 80,159.5C 80.5209,154.75 81.6876,150.083 83.5,145.5C 82.9747,144.808 82.3081,144.308 81.5,144C 84.5,143.667 87.5,143.333 90.5,143C 91.4158,142.722 92.0825,142.222 92.5,141.5 Z"/></g>
<g><path style="opacity:1" fill="#404040" d="M 111.5,153.5 C 112.401,151.273 114.067,150.273 116.5,150.5C 116.5,155.167 114.167,157.5 109.5,157.5C 109.66,159.199 109.494,160.866 109,162.5C 108.333,160.167 108.333,157.833 109,155.5C 109.708,154.619 110.542,153.953 111.5,153.5 Z"/></g>
<g><path style="opacity:1" fill="#ebebeb" d="M 111.5,153.5 C 116.382,152.436 116.382,153.436 111.5,156.5C 110.913,155.767 110.913,154.767 111.5,153.5 Z"/></g>
<g><path style="opacity:1" fill="#606060" d="M 88.5,162.5 C 85.871,159.274 86.371,156.274 90,153.5C 88.8778,156.23 88.3778,159.23 88.5,162.5 Z"/></g>
<g><path style="opacity:1" fill="#2a2a2a" d="M 88.5,162.5 C 90.9032,162.607 92.7365,161.607 94,159.5C 94.9203,156.899 95.587,154.232 96,151.5C 97.297,156.117 96.1303,159.95 92.5,163C 90.9343,163.765 89.6009,163.598 88.5,162.5 Z"/></g>
<g><path style="opacity:1" fill="#434343" d="M 105.5,151.5 C 106.88,151.962 107.547,152.962 107.5,154.5C 106.646,160.358 103.312,163.358 97.5,163.5C 97.8844,158.963 99.0511,154.629 101,150.5C 102.521,150.519 104.021,150.852 105.5,151.5 Z"/></g>
<g><path style="opacity:1" fill="#f2f2f2" d="M 105.5,151.5 C 106.25,155.741 104.917,159.074 101.5,161.5C 100.353,159.235 100.186,156.902 101,154.5C 101.918,152.624 103.418,151.624 105.5,151.5 Z"/></g>
<g><path style="opacity:1" fill="#616161" d="M 113.5,159.5 C 114.713,160.497 114.546,161.497 113,162.5C 112.53,161.423 112.697,160.423 113.5,159.5 Z"/></g>
<g><path style="opacity:1" fill="#3f3f3f" d="M 97.5,163.5 C 97.2357,169.593 94.2357,172.76 88.5,173C 90.8477,172.654 92.6811,171.487 94,169.5C 94.941,167.273 96.1077,165.273 97.5,163.5 Z"/></g>
</svg>
