<?xml version="1.0" standalone="no"?>
<!DOCTYPE svg PUBLIC "-//W3C//DTD SVG 20010904//EN"
 "http://www.w3.org/TR/2001/REC-SVG-20010904/DTD/svg10.dtd">
<svg version="1.0" xmlns="http://www.w3.org/2000/svg"
 width="200.000000pt" height="200.000000pt" viewBox="0 0 200.000000 200.000000"
 preserveAspectRatio="xMidYMid meet">
<metadata>
Created by potrace 1.14, written by Peter Selinger 2001-2017
</metadata>
<g transform="translate(0.000000,200.000000) scale(0.100000,-0.100000)"
fill="#000000" stroke="none">
<path d="M0 1000 l0 -1000 1000 0 1000 0 0 1000 0 1000 -1000 0 -1000 0 0
-1000z m903 515 c-1 -5 -24 -12 -50 -15 l-48 -5 -3 -57 -3 -58 171 0 171 0 -3
58 -3 57 -92 3 c-74 2 -93 6 -93 17 0 12 18 15 91 15 123 0 129 -4 129 -87 0
-68 -16 -103 -47 -103 -9 0 -13 -13 -13 -40 0 -29 -4 -40 -15 -40 -11 0 -15
11 -15 40 0 33 -3 40 -20 40 -19 0 -20 -7 -20 -120 0 -113 2 -123 26 -160 15
-22 30 -40 34 -40 19 0 18 35 0 66 -15 24 -20 46 -18 79 4 63 22 61 28 -2 7
-63 25 -88 42 -58 20 35 56 65 72 59 24 -9 167 -269 173 -314 3 -22 0 -60 -7
-84 -10 -38 -10 -47 6 -71 11 -17 18 -46 18 -76 0 -53 -19 -87 -68 -123 -27
-20 -40 -21 -376 -21 -336 0 -349 1 -376 21 -50 36 -68 70 -68 123 0 47 7 61
152 278 l152 228 0 108 c0 75 -3 107 -12 107 -6 0 -20 7 -30 17 -26 23 -26
147 0 162 21 13 118 10 115 -4z m462 -30 c49 -48 19 -119 -50 -119 -43 0 -75
30 -75 71 0 32 42 73 75 73 14 0 37 -11 50 -25z m87 -245 c24 -25 29 -36 24
-58 -14 -59 -80 -81 -123 -40 -33 30 -31 80 3 107 36 29 60 26 96 -9z"/>
<path d="M860 1228 l0 -113 -131 -195 c-71 -107 -139 -212 -150 -232 -36 -70
-16 -148 46 -174 50 -21 640 -21 690 0 56 24 81 99 53 160 -18 40 -36 16 -30
-42 3 -39 0 -50 -18 -67 -21 -19 -36 -20 -350 -20 -308 0 -329 1 -349 19 -34
31 -27 78 19 147 23 32 45 59 50 59 22 0 16 -20 -22 -78 -31 -47 -39 -68 -34
-87 l6 -25 330 0 330 0 6 24 c3 14 3 29 0 34 -3 5 -37 7 -75 4 -62 -4 -75 -2
-115 22 -58 34 -101 116 -93 176 l5 40 -118 0 -117 0 -27 -41 c-25 -36 -55
-49 -48 -20 1 7 43 72 92 146 l90 134 0 121 c0 113 -1 120 -20 120 -19 0 -20
-7 -20 -112z m110 -398 c32 -32 25 -66 -17 -89 -17 -8 -29 -9 -43 -1 -25 13
-43 47 -34 63 29 50 61 60 94 27z m-125 -110 c38 -42 9 -110 -47 -110 -35 0
-68 32 -68 65 0 56 77 86 115 45z"/>
<path d="M917 813 c-15 -14 -7 -43 12 -43 26 0 36 17 21 35 -14 16 -23 19 -33
8z"/>
<path d="M770 695 c-18 -22 -1 -50 31 -50 20 0 24 5 24 30 0 23 -5 31 -21 33
-11 2 -27 -4 -34 -13z"/>
<path d="M928 1208 l-3 -133 -53 -77 -53 -78 115 0 115 0 16 29 c14 28 13 32
-20 87 -35 58 -35 58 -35 181 l0 123 -39 0 -39 0 -4 -132z"/>
<path d="M1137 1011 c-80 -140 -90 -171 -77 -222 37 -136 198 -162 284 -46 15
20 21 43 21 80 0 46 -8 66 -74 180 -40 70 -77 127 -80 127 -4 0 -37 -53 -74
-119z m91 -44 c3 -33 5 -36 22 -27 31 17 35 -9 6 -39 -17 -18 -26 -38 -26 -61
0 -31 1 -32 18 -17 20 18 42 22 42 9 0 -5 -13 -21 -29 -37 -17 -15 -31 -37
-33 -48 -4 -30 -26 -32 -33 -4 -4 14 -20 37 -36 53 -16 15 -29 31 -29 36 0 13
22 9 42 -9 17 -15 18 -14 18 19 0 22 -7 41 -20 53 -11 10 -20 25 -20 33 0 9 7
13 20 9 16 -4 20 0 20 18 0 62 33 72 38 12z"/>
<path d="M1285 1464 c-20 -20 -16 -42 10 -60 18 -12 24 -11 43 2 26 18 28 37
6 58 -20 20 -38 20 -59 0z"/>
<path d="M1364 1205 c-7 -29 10 -55 36 -55 24 0 42 24 38 52 -2 18 -10 24 -35
26 -28 3 -33 -1 -39 -23z"/>
</g>
</svg>
