<?xml version="1.0" standalone="no"?>
<!DOCTYPE svg PUBLIC "-//W3C//DTD SVG 20010904//EN"
 "http://www.w3.org/TR/2001/REC-SVG-20010904/DTD/svg10.dtd">
<svg version="1.0" xmlns="http://www.w3.org/2000/svg"
 width="200.000000pt" height="200.000000pt" viewBox="0 0 200.000000 200.000000"
 preserveAspectRatio="xMidYMid meet">
<metadata>
Created by potrace 1.14, written by Peter Selinger 2001-2017
</metadata>
<g transform="translate(0.000000,200.000000) scale(0.100000,-0.100000)"
fill="#000000" stroke="none">
<path d="M788 1519 c-26 -15 -26 -139 0 -162 10 -10 24 -17 30 -17 9 0 12 -32
12 -107 l0 -108 -152 -228 c-145 -217 -152 -231 -152 -278 0 -53 18 -87 68
-123 27 -20 40 -21 376 -21 336 0 349 1 376 21 49 36 68 70 68 123 0 30 -7 59
-18 76 -16 24 -16 33 -6 71 20 72 8 114 -75 259 -65 114 -81 135 -101 135 -16
0 -31 -11 -46 -35 -13 -19 -26 -35 -30 -35 -13 0 -23 25 -28 75 -6 62 -24 61
-28 0 -2 -33 3 -55 18 -79 18 -31 19 -66 0 -66 -4 0 -19 18 -34 40 -24 37 -26
47 -26 160 0 113 1 120 20 120 17 0 20 -7 20 -40 0 -29 4 -40 15 -40 11 0 15
11 15 40 0 27 4 40 13 40 31 0 47 35 47 103 0 83 -6 87 -129 87 -73 0 -91 -3
-91 -15 0 -11 19 -15 93 -17 l92 -3 0 -60 0 -60 -165 0 -165 0 0 60 0 60 48 5
c26 3 49 10 50 15 3 14 -94 17 -115 4z m112 -299 l0 -121 -90 -134 c-49 -74
-91 -139 -92 -146 -7 -29 23 -16 48 20 l27 41 117 0 118 0 -5 -40 c-8 -60 35
-142 93 -176 39 -23 53 -26 117 -23 67 4 72 3 75 -17 2 -12 -4 -29 -13 -38
-14 -14 -54 -16 -325 -16 -267 0 -311 2 -324 16 -24 23 -20 43 23 108 37 56
43 76 21 76 -5 0 -27 -27 -50 -59 -46 -69 -53 -116 -19 -147 20 -18 41 -19
349 -19 314 0 329 1 350 20 18 17 21 28 18 67 -6 58 12 82 30 42 27 -58 5
-132 -48 -159 -43 -22 -657 -22 -700 0 -58 30 -76 106 -41 173 11 20 79 125
150 232 l131 195 0 113 c0 105 1 112 20 112 19 0 20 -7 20 -120z m110 -3 c0
-123 0 -123 35 -181 l35 -59 -18 -31 -18 -31 -112 -3 c-62 -1 -112 0 -112 3 0
3 24 41 53 83 l52 77 3 133 4 132 39 0 39 0 0 -123z m279 -212 c40 -68 75
-140 78 -158 7 -48 -11 -97 -52 -137 -60 -58 -165 -53 -220 12 -33 39 -47 95
-35 137 11 39 140 271 151 271 3 0 39 -56 78 -125z"/>
<path d="M898 833 c-26 -31 -29 -42 -18 -63 17 -31 46 -43 73 -29 42 23 49 57
17 89 -25 25 -52 26 -72 3z m52 -28 c15 -18 5 -35 -21 -35 -12 0 -19 7 -19 18
0 33 20 42 40 17z"/>
<path d="M750 720 c-41 -41 -10 -110 48 -110 56 0 85 68 47 110 -23 26 -69 26
-95 0z m75 -45 c0 -25 -4 -30 -24 -30 -32 0 -49 28 -31 50 7 9 23 15 34 13 16
-2 21 -10 21 -33z"/>
<path d="M1196 995 c-3 -9 -6 -27 -6 -40 0 -18 -4 -22 -20 -18 -13 4 -20 0
-20 -9 0 -8 9 -23 20 -33 13 -12 20 -31 20 -53 0 -33 -1 -34 -18 -19 -20 18
-42 22 -42 9 0 -5 13 -21 29 -36 16 -16 32 -39 36 -53 7 -28 29 -26 33 4 2 11
16 33 33 48 16 16 29 32 29 37 0 13 -22 9 -42 -9 -17 -15 -18 -14 -18 19 0 24
8 42 25 58 32 30 32 44 1 38 -22 -5 -25 -1 -28 30 -3 38 -22 53 -32 27z"/>
<path d="M1265 1485 c-49 -48 -19 -119 50 -119 43 0 75 30 75 71 0 32 -42 73
-75 73 -14 0 -37 -11 -50 -25z m79 -21 c9 -8 16 -20 16 -26 0 -15 -30 -48 -43
-48 -15 0 -47 31 -47 46 0 17 28 44 45 44 7 0 21 -7 29 -16z"/>
<path d="M1380 1263 c-53 -20 -67 -83 -27 -121 43 -41 109 -19 123 40 5 22 0
33 -24 58 -30 30 -43 34 -72 23z m58 -61 c4 -28 -14 -52 -38 -52 -26 0 -43 26
-36 55 6 22 11 26 39 23 25 -2 33 -8 35 -26z"/>
</g>
</svg>
