<?xml version="1.0" encoding="UTF-8"?>
<!DOCTYPE svg PUBLIC "-//W3C//DTD SVG 1.1//EN" "http://www.w3.org/Graphics/SVG/1.1/DTD/svg11.dtd">
<svg xmlns="http://www.w3.org/2000/svg" version="1.1" width="200px" height="200px" style="shape-rendering:geometricPrecision; text-rendering:geometricPrecision; image-rendering:optimizeQuality; fill-rule:evenodd; clip-rule:evenodd" xmlns:xlink="http://www.w3.org/1999/xlink">
<g><path style="opacity:1" fill="#fcfcfc" d="M -0.5,-0.5 C 22.1667,-0.5 44.8333,-0.5 67.5,-0.5C 65.8564,0.316435 64.6897,1.64977 64,3.5C 63.3333,10.8333 63.3333,18.1667 64,25.5C 66.1962,28.1252 69.0295,29.1252 72.5,28.5C 72.6665,40.1714 72.4999,51.8381 72,63.5C 57.7265,86.1039 43.0598,108.437 28,130.5C 20.782,146.502 24.9487,158.335 40.5,166C 76.5,166.667 112.5,166.667 148.5,166C 162.295,160.244 167.461,150.078 164,135.5C 162.341,132.351 160.841,129.184 159.5,126C 162.757,117.66 163.257,109.16 161,100.5C 153.333,86.8333 145.667,73.1667 138,59.5C 134.957,57.0922 131.791,56.9255 128.5,59C 126.329,62.6589 123.996,66.1589 121.5,69.5C 119.242,67.3232 117.742,64.6565 117,61.5C 116.667,57.5 116.333,53.5 116,49.5C 115,48.1667 114,48.1667 113,49.5C 111.081,58.6436 112.748,66.977 118,74.5C 118.062,77.1615 117.062,79.4948 115,81.5C 112.333,77.5 109.667,73.5 107,69.5C 105.573,55.8931 105.073,42.2264 105.5,28.5C 107.792,28.2436 109.959,28.5769 112,29.5C 112.333,33.5 112.667,37.5 113,41.5C 114,42.8333 115,42.8333 116,41.5C 116.333,37.5 116.667,33.5 117,29.5C 121.361,29.4893 124.361,27.4893 126,23.5C 126.667,16.8333 126.667,10.1667 126,3.5C 124.5,1.5313 122.667,0.197963 120.5,-0.5C 146.833,-0.5 173.167,-0.5 199.5,-0.5C 199.5,66.1667 199.5,132.833 199.5,199.5C 132.833,199.5 66.1667,199.5 -0.5,199.5C -0.5,132.833 -0.5,66.1667 -0.5,-0.5 Z"/></g>
<g><path style="opacity:1" fill="#0a0a0a" d="M 67.5,-0.5 C 72.8333,-0.5 78.1667,-0.5 83.5,-0.5C 84.7279,1.00978 84.7279,2.50978 83.5,4C 78.2497,4.19285 73.083,4.69285 68,5.5C 67.3333,11.1667 67.3333,16.8333 68,22.5C 68.5,23 69,23.5 69.5,24C 86.5,24.6667 103.5,24.6667 120.5,24C 121.642,17.9156 121.809,11.7489 121,5.5C 111.577,4.68031 102.077,4.18031 92.5,4C 91.2721,2.50978 91.2721,1.00978 92.5,-0.5C 101.833,-0.5 111.167,-0.5 120.5,-0.5C 122.667,0.197963 124.5,1.5313 126,3.5C 126.667,10.1667 126.667,16.8333 126,23.5C 124.361,27.4893 121.361,29.4893 117,29.5C 116.667,33.5 116.333,37.5 116,41.5C 115,42.8333 114,42.8333 113,41.5C 112.667,37.5 112.333,33.5 112,29.5C 109.959,28.5769 107.792,28.2436 105.5,28.5C 105.073,42.2264 105.573,55.8931 107,69.5C 109.667,73.5 112.333,77.5 115,81.5C 117.062,79.4948 118.062,77.1615 118,74.5C 112.748,66.977 111.081,58.6436 113,49.5C 114,48.1667 115,48.1667 116,49.5C 116.333,53.5 116.667,57.5 117,61.5C 117.742,64.6565 119.242,67.3232 121.5,69.5C 123.996,66.1589 126.329,62.6589 128.5,59C 131.791,56.9255 134.957,57.0922 138,59.5C 145.667,73.1667 153.333,86.8333 161,100.5C 163.257,109.16 162.757,117.66 159.5,126C 160.841,129.184 162.341,132.351 164,135.5C 167.461,150.078 162.295,160.244 148.5,166C 112.5,166.667 76.5,166.667 40.5,166C 24.9487,158.335 20.782,146.502 28,130.5C 43.0598,108.437 57.7265,86.1039 72,63.5C 72.4999,51.8381 72.6665,40.1714 72.5,28.5C 69.0295,29.1252 66.1962,28.1252 64,25.5C 63.3333,18.1667 63.3333,10.8333 64,3.5C 64.6897,1.64977 65.8564,0.316435 67.5,-0.5 Z"/></g>
<g><path style="opacity:1" fill="#f6f6f6" d="M 83.5,-0.5 C 86.5,-0.5 89.5,-0.5 92.5,-0.5C 91.2721,1.00978 91.2721,2.50978 92.5,4C 102.077,4.18031 111.577,4.68031 121,5.5C 121.809,11.7489 121.642,17.9156 120.5,24C 103.5,24.6667 86.5,24.6667 69.5,24C 69,23.5 68.5,23 68,22.5C 67.3333,16.8333 67.3333,11.1667 68,5.5C 73.083,4.69285 78.2497,4.19285 83.5,4C 84.7279,2.50978 84.7279,1.00978 83.5,-0.5 Z"/></g>
<g><path style="opacity:1" fill="#0f0f0f" d="M 145.5,2.5 C 159.945,3.22369 163.945,10.057 157.5,23C 144.467,28.7421 137.967,24.5754 138,10.5C 139.69,6.97911 142.19,4.31244 145.5,2.5 Z"/></g>
<g><path style="opacity:1" fill="#f3f3f3" d="M 146.5,7.5 C 153.164,7.00015 156.331,10.0002 156,16.5C 155.535,17.9308 154.701,19.0975 153.5,20C 145.729,22.2191 142.229,19.3857 143,11.5C 143.69,9.64977 144.856,8.31643 146.5,7.5 Z"/></g>
<g><path style="opacity:1" fill="#f6f6f6" d="M 66.5,102.5 C 79.0113,102.171 91.3446,102.505 103.5,103.5C 101.492,125.902 111.492,138.235 133.5,140.5C 138.267,140.284 142.934,139.784 147.5,139C 149.274,143.163 148.607,146.83 145.5,150C 111.833,150.667 78.1667,150.667 44.5,150C 40.8735,147.749 39.7069,144.582 41,140.5C 44.6667,134.833 48.3333,129.167 52,123.5C 51.7677,118.576 50.101,118.242 47,122.5C 43.3333,128.167 39.6667,133.833 36,139.5C 34.8715,146.41 37.3715,151.577 43.5,155C 77.1667,155.667 110.833,155.667 144.5,155C 152.173,152.158 155.006,146.658 153,138.5C 150.909,135.348 151.742,133.015 155.5,131.5C 162.855,141.44 161.855,150.607 152.5,159C 150.283,160.275 147.949,161.275 145.5,162C 111.833,162.667 78.1667,162.667 44.5,162C 32.0974,158.047 27.2641,149.547 30,136.5C 45.3333,113.167 60.6667,89.8333 76,66.5C 77.42,53.8944 77.92,41.2278 77.5,28.5C 79.7925,28.2436 81.9592,28.5769 84,29.5C 84.6667,41.5 84.6667,53.5 84,65.5C 75.0936,80.9768 65.4269,95.9768 55,110.5C 54.51,111.793 54.3433,113.127 54.5,114.5C 55.8734,114.657 57.2068,114.49 58.5,114C 61.0297,109.987 63.6964,106.154 66.5,102.5 Z"/></g>
<g><path style="opacity:1" fill="#f7f7f7" d="M 89.5,28.5 C 93.1667,28.5 96.8333,28.5 100.5,28.5C 100.333,41.1711 100.5,53.8377 101,66.5C 104.061,73.6241 107.895,80.2908 112.5,86.5C 110.58,89.3388 108.913,92.3388 107.5,95.5C 95.1802,96.6659 82.8468,96.8326 70.5,96C 76,87.8333 81.5,79.6667 87,71.5C 88.1134,57.1464 88.9467,42.8131 89.5,28.5 Z"/></g>
<g><path style="opacity:1" fill="#0f0f0f" d="M 158.5,41.5 C 169.875,40.377 175.042,45.377 174,56.5C 172.197,61.5813 168.531,64.248 163,64.5C 153.914,63.0147 150.247,57.6813 152,48.5C 153.694,45.6424 155.861,43.309 158.5,41.5 Z"/></g>
<g><path style="opacity:1" fill="#f8f8f8" d="M 159.5,46.5 C 167.665,45.1638 170.831,48.4971 169,56.5C 165.685,60.1053 162.018,60.4386 158,57.5C 155.689,53.3741 156.189,49.7075 159.5,46.5 Z"/></g>
<g><path style="opacity:1" fill="#f9f9f9" d="M 131.5,62.5 C 132.675,62.281 133.675,62.6143 134.5,63.5C 142.253,76.6715 149.753,90.0048 157,103.5C 159.167,126.667 148.667,137.167 125.5,135C 109.911,128.246 104.744,116.746 110,100.5C 117.444,87.9409 124.61,75.2743 131.5,62.5 Z"/></g>
<g><path style="opacity:1" fill="#0c0c0c" d="M 131.5,82.5 C 132.822,82.33 133.989,82.6634 135,83.5C 135.333,87.5 135.667,91.5 136,95.5C 137.848,92.9586 140.348,91.9586 143.5,92.5C 142.051,96.4724 139.551,99.8057 136,102.5C 135.333,106.5 135.333,110.5 136,114.5C 137.833,112.667 139.667,110.833 141.5,109C 143.319,108.217 144.652,108.717 145.5,110.5C 142.894,114.609 139.727,118.276 136,121.5C 135.749,123.433 135.249,125.266 134.5,127C 133.216,127.684 132.049,127.517 131,126.5C 130.667,124.833 130.333,123.167 130,121.5C 127,118.5 124,115.5 121,112.5C 120.51,111.207 120.343,109.873 120.5,108.5C 124.503,108.971 127.669,110.971 130,114.5C 130.667,110.5 130.667,106.5 130,102.5C 126.449,99.8057 123.949,96.4724 122.5,92.5C 125.652,91.9586 128.152,92.9586 130,95.5C 130.228,91.0829 130.728,86.7496 131.5,82.5 Z"/></g>
<g><path style="opacity:1" fill="#bdbdbd" d="M 66.5,102.5 C 79.0062,101.175 91.6729,101.175 104.5,102.5C 104.376,103.107 104.043,103.44 103.5,103.5C 91.3446,102.505 79.0113,102.171 66.5,102.5 Z"/></g>
<g><path style="opacity:1" fill="#101010" d="M 85.5,107.5 C 94.3743,106.871 98.2076,110.871 97,119.5C 93.0865,126.096 88.0865,127.096 82,122.5C 78.0183,116.235 79.185,111.235 85.5,107.5 Z"/></g>
<g><path style="opacity:1" fill="#f1f1f1" d="M 86.5,112.5 C 92.4877,112.664 93.821,115.164 90.5,120C 84.4034,120.147 83.0701,117.647 86.5,112.5 Z"/></g>
<g><path style="opacity:1" fill="#111111" d="M 62.5,124.5 C 73.9893,123.155 78.8226,128.155 77,139.5C 69.4076,147.981 62.741,147.314 57,137.5C 56.3333,135.5 56.3333,133.5 57,131.5C 58.6665,129.004 60.4998,126.671 62.5,124.5 Z"/></g>
<g><path style="opacity:1" fill="#efefef" d="M 64.5,129.5 C 72.2436,129.048 74.5769,132.215 71.5,139C 66.1172,141.961 62.7839,140.461 61.5,134.5C 62.0924,132.577 63.0924,130.911 64.5,129.5 Z"/></g>
<g><path style="opacity:1" fill="#141414" d="M 79.5,186.5 C 80.7943,184.952 81.4609,182.952 81.5,180.5C 81.4954,178.304 81.162,176.304 80.5,174.5C 78.9826,174.511 77.8159,175.177 77,176.5C 76.5172,175.552 76.3505,174.552 76.5,173.5C 80.1667,173.5 83.8333,173.5 87.5,173.5C 87.6495,174.552 87.4828,175.552 87,176.5C 86.2904,175.027 85.1238,174.36 83.5,174.5C 82.9445,178.997 83.6112,183.164 85.5,187C 83.2884,187.789 81.2884,187.622 79.5,186.5 Z"/></g>
<g><path style="opacity:1" fill="#777777" d="M 80.5,174.5 C 81.162,176.304 81.4954,178.304 81.5,180.5C 81.4609,182.952 80.7943,184.952 79.5,186.5C 80.4299,182.6 80.7633,178.6 80.5,174.5 Z"/></g>
<g><path style="opacity:1" fill="#323232" d="M 100.5,176.5 C 102.864,177.529 105.197,177.529 107.5,176.5C 109.029,176.529 110.196,177.196 111,178.5C 112.385,184.848 109.885,187.848 103.5,187.5C 103.5,188.5 103.5,189.5 103.5,190.5C 104.675,190.281 105.675,190.614 106.5,191.5C 104.5,192.833 102.5,192.833 100.5,191.5C 101.778,186.501 101.778,181.501 100.5,176.5 Z"/></g>
<g><path style="opacity:1" fill="#efefef" d="M 104.5,178.5 C 109.328,178.385 110.661,180.552 108.5,185C 107.207,185.49 105.873,185.657 104.5,185.5C 104.5,183.167 104.5,180.833 104.5,178.5 Z"/></g>
<g><path style="opacity:1" fill="#202020" d="M 115.5,176.5 C 120.339,175.677 122.673,177.677 122.5,182.5C 113.395,183.141 113.395,184.308 122.5,186C 113.452,188.425 111.119,185.258 115.5,176.5 Z"/></g>
<g><path style="opacity:1" fill="#eaeaea" d="M 116.5,178.5 C 117.978,178.238 119.311,178.571 120.5,179.5C 118.926,180.631 117.259,180.798 115.5,180C 116.056,179.617 116.389,179.117 116.5,178.5 Z"/></g>
<g><path style="opacity:1" fill="#262626" d="M 91.5,176.5 C 97.9972,176.18 100.164,179.18 98,185.5C 91.0858,189.504 88.0858,187.504 89,179.5C 90.045,178.627 90.8783,177.627 91.5,176.5 Z"/></g>
<g><path style="opacity:1" fill="#f9f9f9" d="M 91.5,178.5 C 96.3276,178.385 97.6609,180.552 95.5,185C 94.2068,185.49 92.8734,185.657 91.5,185.5C 91.5,183.167 91.5,180.833 91.5,178.5 Z"/></g>
</svg>
